<svg width="600" height="600" viewBox="0 0 600 600" fill="none" xmlns="http://www.w3.org/2000/svg">
  <path d="M300 50C300 50 400 150 500 150C500 150 400 250 300 250C300 250 200 150 100 150C100 150 200 50 300 50Z" fill="#E0E7E2"/>
  <path d="M300 250C300 250 400 350 500 350C500 350 400 450 300 450C300 450 200 350 100 350C100 350 200 250 300 250Z" fill="#C4D2C7"/>
  <path d="M300 450C300 450 400 550 500 550C500 550 400 650 300 650C300 650 200 550 100 550C100 550 200 450 300 450Z" fill="#A3B7A7"/>
  <path d="M150 200C150 200 200 250 250 250C250 250 200 300 150 300C150 300 100 250 50 250C50 250 100 200 150 200Z" fill="#F0F4F1"/>
  <path d="M450 200C450 200 500 250 550 250C550 250 500 300 450 300C450 300 400 250 350 250C350 250 400 200 450 200Z" fill="#F0F4F1"/>
  <path d="M150 400C150 400 200 450 250 450C250 450 200 500 150 500C150 500 100 450 50 450C50 450 100 400 150 400Z" fill="#E0E7E2"/>
  <path d="M450 400C450 400 500 450 550 450C550 450 500 500 450 500C450 500 400 450 350 450C350 450 400 400 450 400Z" fill="#E0E7E2"/>
</svg>
